<svg id="Шар_1" data-name="Шар 1" xmlns="http://www.w3.org/2000/svg" viewBox="0 0 470.55 470.55"><defs><style>.cls-1{fill:#231f20;fill-rule:evenodd;}</style></defs><title>Pandora Prometheus</title><path class="cls-1" d="M197.8,429l115.14-248.8-102.74,46,70.67-204L243.21,38.82,177.28,264.17l89-40.6Z"/><path class="cls-1" d="M426.46,115H368.1a171.85,171.85,0,0,0-265.65,0H44.09L73.5,165.93A172,172,0,0,0,204.69,393.16l30.59,53,30.58-53A172,172,0,0,0,397.05,165.93Zm-35.82,20-4.2,7.27q-2-3.69-4.17-7.27Zm-34.15,0a150.45,150.45,0,0,1,17,29.68L253,373.4a151.23,151.23,0,0,1-35.41,0L97.05,164.64a150.45,150.45,0,0,1,17-29.68ZM235.28,73.61A149.9,149.9,0,0,1,338.88,115H131.67A149.91,149.91,0,0,1,235.28,73.61ZM79.91,135h8.37q-2.18,3.58-4.17,7.27Zm5,89.07a151.27,151.27,0,0,1,3.5-32.36L189.85,367.45A150.47,150.47,0,0,1,84.86,224Zm150.42,180-4.77-8.25c1.58,0,3.17.07,4.77.07s3.18,0,4.76-.07ZM385.69,224a150.47,150.47,0,0,1-105,143.42L382.19,191.67A151.27,151.27,0,0,1,385.69,224Z"/></svg>